<?xml version="1.0" standalone="no"?>
<!DOCTYPE svg PUBLIC "-//W3C//DTD SVG 20010904//EN"
 "http://www.w3.org/TR/2001/REC-SVG-20010904/DTD/svg10.dtd">
<svg version="1.0" xmlns="http://www.w3.org/2000/svg"
 width="3500.000000pt" height="3147.000000pt" viewBox="0 0 3500.000000 3147.000000"
 preserveAspectRatio="xMidYMid meet">

<g transform="translate(0.000000,3147.000000) scale(0.100000,-0.100000)"
fill="#000000" stroke="none">
<path d="M9035 31459 c-1471 -21 -2230 -169 -3240 -630 -204 -93 -840 -413
-1010 -508 -587 -329 -1093 -687 -1610 -1140 -272 -237 -762 -747 -1021 -1061
-479 -581 -925 -1270 -1293 -2000 -533 -1056 -739 -1782 -816 -2885 -54 -776
-58 -1887 -10 -2635 175 -2709 981 -4916 2564 -7025 657 -876 1407 -1683 2451
-2640 1656 -1518 2384 -2104 6125 -4935 985 -745 1222 -928 1580 -1214 1005
-803 1980 -1652 2750 -2392 777 -748 1290 -1391 1720 -2159 138 -247 156 -265
210 -203 16 20 59 90 93 157 134 257 440 599 1288 1441 1565 1553 3576 3324
5369 4726 374 293 736 566 1235 932 1431 1048 2341 1752 3305 2556 1330 1109
2439 2194 3276 3206 976 1179 1690 2370 2226 3715 197 494 313 860 423 1330
175 756 277 1535 332 2535 18 340 15 1315 -6 1690 -90 1620 -372 2999 -799
3904 -571 1210 -1458 2337 -2507 3187 -2118 1715 -4955 2414 -7645 1883 -1503
-296 -2857 -956 -3990 -1945 -175 -152 -582 -560 -738 -740 -489 -561 -896
-1173 -1221 -1834 -64 -129 -487 -1046 -638 -1383 -11 -24 -21 -42 -23 -40 -2
2 -58 215 -124 473 -66 259 -138 522 -159 585 -217 641 -668 1360 -1330 2118
-194 222 -693 720 -917 914 -413 358 -816 656 -1205 890 -276 166 -927 513
-1190 634 -744 342 -1426 473 -2555 489 -187 3 -365 7 -395 8 -30 1 -257 -1
-505 -4z"/>
</g>
</svg>
