<svg width="172" height="188" viewBox="0 0 172 188" fill="none" xmlns="http://www.w3.org/2000/svg">
<path d="M73.3626 4.36737C69.304 4.76616 65.1747 5.69236 61.8237 8.02072C57.6944 10.8894 55.1666 15.6683 54.1761 20.6016C52.8125 27.4002 54.3498 34.9899 59.1673 39.9746C64.5508 45.5511 72.8866 47.0369 80.6371 47.1849C88.3876 47.3328 96.2989 46.4516 103.779 48.4777C109.433 50.0149 114.765 53.1859 120.625 53.1794C126.24 53.173 131.675 50.002 134.711 45.2746C137.746 40.5471 138.402 34.4496 136.743 29.0854C130.06 7.5126 92.5748 2.46352 73.3626 4.36737Z" fill="#E8D9CF"/>
<path d="M52.9927 39.8297C40.4183 43.2515 26.3323 44.3964 14.9027 38.1381C10.156 35.5396 5.67289 30.3941 7.36449 25.2549C8.76665 20.997 13.597 19.0931 17.8679 17.7231C41.1451 10.2685 64.7053 2.77529 89.0952 1.07725C94.6717 0.691337 104.307 1.50176 104.05 9.34231C103.876 14.5843 96.5241 17.6395 92.7486 20.4246C80.7787 29.2492 67.3553 35.9191 52.9927 39.8297Z" fill="#D0A99D"/>
<path d="M1.31855 187.331L1.24137 187.022C22.8141 181.465 42.1486 164.542 52.9478 141.76C62.2034 122.239 65.6573 98.8848 63.2196 72.3402C62.5636 65.1943 61.438 57.7075 57.6881 51.4106C51.4363 40.9073 39.4085 35.7488 26.5768 30.9699L0 21.0647L0.109343 20.7624L26.6862 30.6676C39.5693 35.4658 51.655 40.6564 57.9519 51.237C61.7338 57.5917 62.8659 65.1171 63.5219 72.3016C65.9661 98.9041 62.4992 122.316 53.2179 141.889C42.393 164.761 22.9814 181.741 1.31855 187.331Z" fill="#C58C71"/>
<path d="M122.081 42.3479L121.785 42.2129C124.081 37.1766 129.349 33.3882 129.401 33.3496L129.587 33.6133C129.536 33.6519 124.339 37.3953 122.081 42.3479Z" fill="#C58C71"/>
<path d="M117.676 35.202C117.496 35.202 117.322 35.1763 117.149 35.1184C116.724 34.9769 116.377 34.6811 116.177 34.2823C115.766 33.459 116.094 32.4492 116.923 32.0375C117.322 31.8381 117.779 31.806 118.203 31.9411C118.628 32.0826 118.975 32.3784 119.175 32.7772C119.586 33.6005 119.252 34.6103 118.429 35.0284C118.191 35.1442 117.933 35.202 117.676 35.202ZM117.071 32.3205C116.402 32.655 116.132 33.4719 116.467 34.1343C116.801 34.8033 117.618 35.0734 118.281 34.7389C118.949 34.4045 119.22 33.5876 118.885 32.9251C118.724 32.6035 118.448 32.3591 118.1 32.2498C117.76 32.1276 117.393 32.1597 117.071 32.3205Z" fill="#C58C71"/>
<path d="M121.49 45.1201C120.879 45.1201 120.287 44.7792 119.992 44.2004C119.58 43.3771 119.914 42.3673 120.738 41.9556C121.136 41.7562 121.593 41.7241 122.018 41.8591C122.442 41.9942 122.789 42.2965 122.989 42.6953C123.188 43.0941 123.22 43.5507 123.085 43.9752C122.944 44.3998 122.648 44.7471 122.249 44.9465C121.998 45.0622 121.741 45.1201 121.49 45.1201ZM120.879 42.2386C120.21 42.5731 119.94 43.3899 120.275 44.0524C120.609 44.7214 121.426 44.9851 122.088 44.657C122.41 44.4962 122.654 44.2132 122.764 43.8723C122.88 43.5314 122.847 43.1648 122.687 42.8368C122.526 42.5152 122.243 42.2708 121.902 42.1614C121.567 42.0457 121.201 42.0714 120.879 42.2386Z" fill="#C58C71"/>
<path d="M137.177 42.3286C136.997 42.3286 136.823 42.3029 136.649 42.245C136.225 42.1035 135.878 41.8076 135.678 41.4089C135.266 40.5856 135.601 39.5758 136.424 39.1641C136.823 38.9647 137.28 38.9326 137.704 39.0741C138.129 39.2156 138.476 39.5114 138.675 39.9102C139.087 40.7335 138.753 41.7433 137.929 42.1614C137.691 42.2707 137.434 42.3286 137.177 42.3286ZM136.566 39.4471C135.897 39.7816 135.627 40.5984 135.961 41.2609C136.122 41.5825 136.405 41.8269 136.746 41.9363C137.093 42.0521 137.453 42.0199 137.781 41.8591C138.103 41.6983 138.347 41.4153 138.457 41.0744C138.573 40.7335 138.54 40.3669 138.38 40.0389C138.219 39.7173 137.942 39.4728 137.595 39.3635C137.26 39.2542 136.894 39.2863 136.566 39.4471Z" fill="#C58C71"/>
<path d="M124.172 33.8063C121.831 33.8063 120.049 33.6198 119.026 33.4719L119.071 33.1503C124.712 33.9478 153.72 36.0832 171.331 0L171.62 0.141503C157.104 29.9021 134.843 33.8063 124.172 33.8063Z" fill="#C58C71"/>
<path d="M137.962 39.4857L137.653 39.3892C140.078 31.4908 143.095 29.484 143.223 29.4004L143.397 29.6706C143.365 29.6963 140.342 31.7224 137.962 39.4857Z" fill="#C58C71"/>
<path d="M79 75.5C79 76.8807 77.8807 78 76.5 78C75.1193 78 74 76.8807 74 75.5C74 74.1193 75.1193 73 76.5 73C77.8807 73 79 74.1193 79 75.5Z" fill="#F3ECDA"/>
<path d="M90 64C90 66.7614 87.7614 69 85 69C82.2386 69 80 66.7614 80 64C80 61.2386 82.2386 59 85 59C87.7614 59 90 61.2386 90 64Z" fill="#F5E4E3"/>
</svg>
