<svg width="178" height="189" viewBox="0 0 178 189" fill="none" xmlns="http://www.w3.org/2000/svg">
<g clip-path="url(#clip0_2_1325)">
<path d="M164.45 150.047C169.652 140.862 170.892 129.985 171.101 119.429C171.316 108.565 170.55 97.6813 168.816 86.9574C167.124 76.4842 163.9 65.2241 155.189 59.1658C148.19 54.2983 139.138 53.8387 130.621 53.595C126.255 53.4696 121.631 53.4139 117.843 55.5935C112.927 58.4138 110.685 64.2075 108.909 69.5903C100.943 93.7539 90.0655 124.582 92.0223 150.354C93.7075 172.567 117.356 172.066 134.437 169.538C146.958 167.679 158.079 161.293 164.45 150.047Z" fill="#D0A99D"/>
<path d="M106.263 24.0486C104.083 27.5443 101.534 30.8659 100.065 34.7098C98.5888 38.5537 98.352 43.1706 100.671 46.5757C103.672 50.9628 110.204 51.8611 115.002 49.584C119.8 47.3069 123.031 42.5787 124.981 37.6345C128.226 29.3897 128.449 19.9958 125.6 11.6117C124.291 7.76781 116.764 -4.62037 112.133 2.33623C110.615 4.61332 111.666 9.29979 111.242 11.9042C110.538 16.2425 108.575 20.344 106.263 24.0486Z" fill="#C58C71"/>
<path d="M21.3072 109.227C15.8478 111.177 10.3605 115.027 9.39955 120.745C9.04441 122.882 9.36473 125.083 9.99145 127.158C12.4983 135.41 20.2557 141.802 28.8349 142.68C36.1466 143.432 43.3748 140.507 50.7283 140.486C58.2907 140.458 66.2849 143.425 73.1301 140.208C77.2804 138.258 80.2886 134.052 80.79 129.491C82.2106 116.532 66.8489 113.607 57.4133 110.571C45.7842 106.831 33.0687 105.028 21.3072 109.227Z" fill="#E8D9CF"/>
<path d="M88.2276 188.89C72.5038 177.428 63.1448 159.246 54.886 143.202C51.2301 136.099 47.4489 128.753 45.7498 120.765C43.8418 111.789 45.0604 103.44 49.1829 97.2634C54.1479 89.8263 61.9749 87.2846 67.6641 86.4629C74.962 85.4045 83.1581 86.5952 90.1565 89.7149C100.038 94.1298 108.373 101.386 116.437 108.405C119.598 111.156 122.864 113.997 126.179 116.629C141.408 128.725 159.423 137.652 178.273 142.443L178.19 142.777C159.291 137.972 141.234 129.024 125.963 116.901C122.641 114.268 119.376 111.42 116.214 108.67C108.171 101.671 99.8497 94.4292 90.0172 90.0352C76.7307 84.1023 58.0057 84.6803 49.4753 97.4584C45.4016 103.552 44.2039 111.803 46.091 120.696C47.7762 128.634 51.5505 135.96 55.1994 143.049C63.4373 159.058 72.7824 177.205 88.4365 188.618L88.2276 188.89Z" fill="#C58C71"/>
<path d="M54.7088 159.741L54.5068 159.456C54.5625 159.414 60.1891 155.368 62.6333 149.999L62.9536 150.146C60.4676 155.598 54.7645 159.7 54.7088 159.741Z" fill="#C58C71"/>
<path d="M67.4034 161.364C67.2085 161.364 67.0204 161.336 66.8324 161.273C66.3728 161.12 65.9968 160.8 65.7809 160.368C65.5651 159.936 65.5302 159.442 65.6765 158.982C65.8297 158.523 66.15 158.147 66.5817 157.931C67.4731 157.485 68.5664 157.847 69.019 158.739C69.2349 159.17 69.2697 159.665 69.1234 160.124C68.9702 160.584 68.6499 160.96 68.2182 161.176C67.9605 161.301 67.682 161.364 67.4034 161.364ZM67.4034 158.084C67.1806 158.084 66.9578 158.133 66.7489 158.237C66.0247 158.599 65.7322 159.484 66.1013 160.201C66.2753 160.549 66.5748 160.814 66.9508 160.932C67.3268 161.057 67.7168 161.023 68.0719 160.849C68.7962 160.486 69.0886 159.602 68.7196 158.885C68.4549 158.383 67.9396 158.084 67.4034 158.084Z" fill="#C58C71"/>
<path d="M63.28 150.626C63.085 150.626 62.897 150.598 62.709 150.536C62.2494 150.382 61.8734 150.062 61.6575 149.63C61.2119 148.739 61.574 147.646 62.4653 147.193C62.897 146.977 63.3914 146.942 63.851 147.089C64.3106 147.242 64.6867 147.562 64.9025 147.994C65.3482 148.885 64.9861 149.978 64.0948 150.431C63.8371 150.563 63.5586 150.626 63.28 150.626ZM63.28 147.346C63.0572 147.346 62.8344 147.402 62.6255 147.506C62.2773 147.68 62.0127 147.98 61.8943 148.356C61.7759 148.732 61.8038 149.122 61.9778 149.477C62.3399 150.201 63.2243 150.494 63.9416 150.125C64.6658 149.763 64.9582 148.878 64.5961 148.161C64.4221 147.813 64.1226 147.548 63.7466 147.43C63.5864 147.374 63.4332 147.346 63.28 147.346Z" fill="#C58C71"/>
<path d="M46.297 153.648C45.6355 153.648 44.9948 153.279 44.6745 152.652C44.4586 152.221 44.4238 151.726 44.57 151.267C44.7163 150.807 45.0436 150.431 45.4753 150.215C46.3666 149.77 47.4599 150.125 47.9125 151.023C48.3582 151.914 47.9961 153.008 47.1048 153.46C46.8471 153.586 46.5686 153.648 46.297 153.648ZM46.29 150.375C46.0672 150.375 45.8444 150.424 45.6355 150.529C45.2873 150.703 45.0227 151.002 44.9043 151.378C44.7789 151.747 44.8138 152.144 44.9878 152.499C45.1619 152.847 45.4614 153.112 45.8374 153.23C46.2134 153.349 46.6034 153.321 46.9585 153.147C47.6827 152.785 47.9752 151.9 47.6131 151.183C47.3415 150.668 46.8262 150.375 46.29 150.375Z" fill="#C58C71"/>
<path d="M9.31336 195.847L9 195.694C28.1707 156.413 59.7922 158.739 65.9411 159.609L65.8923 159.95C59.7922 159.094 28.3796 156.775 9.31336 195.847Z" fill="#C58C71"/>
<path d="M39.7447 164.017L39.5566 163.725C39.5915 163.704 42.8574 161.51 45.4409 153.105L45.7751 153.21C43.1498 161.754 39.8839 163.926 39.7447 164.017Z" fill="#C58C71"/>
</g>
<defs>
<clipPath id="clip0_2_1325">
<rect width="178" height="189" fill="white"/>
</clipPath>
</defs>
</svg>
