<svg width="1438" height="674" viewBox="0 0 1438 674" fill="none" xmlns="http://www.w3.org/2000/svg">
<mask id="path-1-inside-1_159_84" fill="white">
<path d="M-2 0H1438V674H-2V0Z"/>
<path d="M418 452.5C418 466.031 407.031 477 393.5 477C379.969 477 369 466.031 369 452.5C369 438.969 379.969 428 393.5 428C407.031 428 418 438.969 418 452.5Z"/>
</mask>
<path d="M397.354 453.354C397.549 453.158 397.549 452.842 397.354 452.646L394.172 449.464C393.976 449.269 393.66 449.269 393.464 449.464C393.269 449.66 393.269 449.976 393.464 450.172L396.293 453L393.464 455.828C393.269 456.024 393.269 456.34 393.464 456.536C393.66 456.731 393.976 456.731 394.172 456.536L397.354 453.354ZM341 453.5H397V452.5H341V453.5ZM-2 0V-1H-3V0H-2ZM1438 0H1439V-1H1438V0ZM1438 674V675H1439V674H1438ZM-2 674H-3V675H-2V674ZM-2 1H1438V-1H-2V1ZM1437 0V674H1439V0H1437ZM1438 673H-2V675H1438V673ZM-1 674V0H-3V674H-1ZM417 452.5C417 465.479 406.479 476 393.5 476V478C407.583 478 419 466.583 419 452.5H417ZM393.5 476C380.521 476 370 465.479 370 452.5H368C368 466.583 379.417 478 393.5 478V476ZM370 452.5C370 439.521 380.521 429 393.5 429V427C379.417 427 368 438.417 368 452.5H370ZM393.5 429C406.479 429 417 439.521 417 452.5H419C419 438.417 407.583 427 393.5 427V429Z" fill="#47362B" mask="url(#path-1-inside-1_159_84)"/>
</svg>
